<?xml version="1.0" encoding="UTF-8" standalone="no"?>
<!-- Created with Inkscape (http://www.inkscape.org/) -->

<svg
   xmlns:dc="http://purl.org/dc/elements/1.1/"
   xmlns:cc="http://creativecommons.org/ns#"
   xmlns:rdf="http://www.w3.org/1999/02/22-rdf-syntax-ns#"
   xmlns:svg="http://www.w3.org/2000/svg"
   xmlns="http://www.w3.org/2000/svg"
   xmlns:xlink="http://www.w3.org/1999/xlink"
   version="1.1"
   width="64"
   height="22"
   id="svg3273">
  <defs
     id="defs3275">
    <linearGradient
       id="linearGradient4095-7">
      <stop
         id="stop4097-8"
         style="stop-color:#131313;stop-opacity:1"
         offset="0" />
      <stop
         id="stop4099-6"
         style="stop-color:#131313;stop-opacity:0"
         offset="1" />
    </linearGradient>
    <linearGradient
       id="linearGradient4054-8">
      <stop
         id="stop4056-8"
         style="stop-color:#1a1a1a;stop-opacity:1"
         offset="0" />
      <stop
         id="stop4058-4"
         style="stop-color:#666666;stop-opacity:1"
         offset="1" />
    </linearGradient>
    <linearGradient
       x1="-47.059258"
       y1="20.14957"
       x2="-46.978706"
       y2="1.0181593"
       id="linearGradient3176"
       xlink:href="#linearGradient4054-8"
       gradientUnits="userSpaceOnUse"
       gradientTransform="matrix(0.9757771,0,0,1.0033839,63.343464,0.11408468)" />
    <linearGradient
       x1="-17.784681"
       y1="9.8260183"
       x2="-11.504409"
       y2="9.6024895"
       id="linearGradient3180"
       xlink:href="#linearGradient4095-7"
       gradientUnits="userSpaceOnUse"
       gradientTransform="matrix(0.88797735,0,0,0.89426106,44.890499,2.3876437)" />
    <linearGradient
       x1="-47.059258"
       y1="20.14957"
       x2="-46.978706"
       y2="1.0181593"
       id="linearGradient3089"
       xlink:href="#linearGradient4054-8"
       gradientUnits="userSpaceOnUse"
       gradientTransform="matrix(0.9757771,0,0,1.0033839,63.343464,0.11408468)" />
    <linearGradient
       x1="-17.784681"
       y1="9.8260183"
       x2="-11.504409"
       y2="9.6024895"
       id="linearGradient3093"
       xlink:href="#linearGradient4095-7"
       gradientUnits="userSpaceOnUse"
       gradientTransform="matrix(0.88797735,0,0,0.89426106,44.890499,2.3876437)" />
  </defs>
  <metadata
     id="metadata3278">
    <rdf:RDF>
      <cc:Work
         rdf:about="">
        <dc:format>image/svg+xml</dc:format>
        <dc:type
           rdf:resource="http://purl.org/dc/dcmitype/StillImage" />
        <dc:title></dc:title>
      </cc:Work>
    </rdf:RDF>
  </metadata>
  <g
     id="g3120">
    <rect
       width="63.000004"
       height="19.329391"
       rx="0"
       ry="0"
       x="0.49486911"
       y="1.5384814"
       id="rect17456-3"
       style="color:#000000;fill:#1b2c38;fill-opacity:1;stroke:#151515;stroke-width:1.00863087;stroke-linecap:round;stroke-linejoin:miter;stroke-miterlimit:4;stroke-opacity:1;stroke-dasharray:none;stroke-dashoffset:0;marker:none;visibility:visible;display:inline;overflow:visible;enable-background:accumulate" />
    <rect
       width="60.831535"
       height="16.935122"
       rx="2.6125011"
       ry="0"
       x="1.414688"
       y="2.5856102"
       id="rect4103-1"
       style="opacity:0.43421056;color:#000000;fill:none;stroke:#000000;stroke-width:0.63363165;stroke-linecap:round;stroke-linejoin:miter;stroke-miterlimit:4;stroke-opacity:1;stroke-dasharray:none;stroke-dashoffset:0;marker:none;visibility:visible;display:inline;overflow:visible;enable-background:accumulate" />
    <rect
       width="59.675213"
       height="14.549673"
       rx="1.3368816"
       ry="0"
       x="1.3889502"
       y="3.7685268"
       id="rect4306-4"
       style="opacity:0.11403509;color:#000000;fill:none;stroke:#000000;stroke-width:0.58170366;stroke-linecap:round;stroke-linejoin:miter;stroke-miterlimit:4;stroke-opacity:1;stroke-dasharray:none;stroke-dashoffset:0;marker:none;visibility:visible;display:inline;overflow:visible;enable-background:accumulate" />
    <rect
       width="61.394192"
       height="18.112261"
       rx="1.011971"
       ry="0"
       x="1.4232329"
       y="2.0386455"
       id="rect3996-9"
       style="opacity:0.85526315;color:#000000;fill:none;stroke:#0c0c0c;stroke-width:0.6583066;stroke-linecap:round;stroke-linejoin:miter;stroke-miterlimit:4;stroke-opacity:1;stroke-dasharray:none;stroke-dashoffset:0;marker:none;visibility:visible;display:inline;overflow:visible;enable-background:accumulate" />
    <rect
       width="60.230118"
       height="15.684348"
       rx="1.9587173"
       ry="0"
       x="1.4013671"
       y="3.2109973"
       id="rect4105-2"
       style="opacity:0.27192987;color:#000000;fill:none;stroke:#000000;stroke-width:0.60676193;stroke-linecap:round;stroke-linejoin:miter;stroke-miterlimit:4;stroke-opacity:1;stroke-dasharray:none;stroke-dashoffset:0;marker:none;visibility:visible;display:inline;overflow:visible;enable-background:accumulate" />
    <rect
       width="27.527298"
       height="17.885221"
       rx="3.5519094"
       ry="0"
       x="6.4491196"
       y="2.1321113"
       id="rect4062-0"
       style="fill:url(#linearGradient3093);fill-opacity:1;stroke:none;display:inline" />
    <rect
       width="32.32217"
       height="22.0058"
       rx="1.0514213"
       ry="0.53952408"
       x="-0.13564694"
       y="0.080254249"
       id="rect4093-6"
       style="fill:#696969;fill-opacity:1;stroke:none;display:inline" />
    <rect
       width="30.24909"
       height="20.067678"
       rx="0"
       ry="0"
       x="1.0189131"
       y="0.99077481"
       id="rect17458-8"
       style="fill:url(#linearGradient3089);fill-opacity:1;stroke:none;display:inline" />
    <g
       id="text4327"
       style="font-size:11px;font-style:normal;font-variant:normal;font-weight:bold;font-stretch:normal;line-height:125%;letter-spacing:0px;word-spacing:0px;fill:#dbdbdb;fill-opacity:1;stroke:none;font-family:Aller;-inkscape-font-specification:Aller Bold">
      <path
         d="m 41.28764,14.821442 c -0.594004,0 -1.107337,-0.102667 -1.54,-0.308 -0.432669,-0.205333 -0.788335,-0.487666 -1.067,-0.847 -0.278668,-0.366666 -0.487668,-0.795665 -0.627,-1.287 -0.132001,-0.498664 -0.198001,-1.04133 -0.198,-1.628 -1e-6,-0.586662 0.066,-1.1293286 0.198,-1.6280003 0.139332,-0.5059939 0.348332,-0.9423268 0.627,-1.309 0.278665,-0.3666594 0.634331,-0.6526592 1.067,-0.858 0.432663,-0.2053254 0.945996,-0.307992 1.54,-0.308 0.593995,8e-6 1.107328,0.1026746 1.54,0.308 0.43266,0.2053408 0.788327,0.4913406 1.067,0.858 0.278659,0.3666732 0.483993,0.8030061 0.616,1.309 0.139326,0.4986717 0.208992,1.0413383 0.209,1.6280003 -8e-6,0.58667 -0.06967,1.129336 -0.209,1.628 -0.132007,0.491335 -0.337341,0.920334 -0.616,1.287 -0.278673,0.359334 -0.63434,0.641667 -1.067,0.847 -0.432672,0.205333 -0.946005,0.308 -1.54,0.308 m 0,-1.342 c 1.136661,10e-7 1.704994,-0.909332 1.705,-2.728 -6e-6,-0.9093288 -0.139339,-1.5913281 -0.418,-2.0460003 -0.271339,-0.4546602 -0.696672,-0.6819934 -1.276,-0.682 -1.151337,6.6e-6 -1.727003,0.9093391 -1.727,2.7280003 -3e-6,1.818668 0.571997,2.728001 1.716,2.728"
         id="path4489"
         style="fill:#dbdbdb;fill-opacity:1" />
      <path
         d="m 46.056827,6.7804417 4.488,0 c 0.044,0.2200077 0.066,0.4436741 0.066,0.671 -5e-6,0.242007 -0.02201,0.4730067 -0.066,0.693 l -2.882,0 0,1.8590003 2.288,0 c 0.044,0.234671 0.066,0.462004 0.066,0.682 -5e-6,0.23467 -0.02201,0.46567 -0.066,0.693 l -2.288,0 0,3.311 c -0.278669,0.044 -0.542668,0.066 -0.792,0.066 -0.271335,0 -0.542668,-0.022 -0.814,-0.066 l 0,-7.9090003"
         id="path4491"
         style="fill:#dbdbdb;fill-opacity:1" />
      <path
         d="m 51.642765,6.7804417 4.488,0 c 0.04399,0.2200077 0.06599,0.4436741 0.066,0.671 -6e-6,0.242007 -0.02201,0.4730067 -0.066,0.693 l -2.882,0 0,1.8590003 2.288,0 c 0.04399,0.234671 0.066,0.462004 0.066,0.682 -5e-6,0.23467 -0.02201,0.46567 -0.066,0.693 l -2.288,0 0,3.311 c -0.278669,0.044 -0.542669,0.066 -0.792,0.066 -0.271335,0 -0.542668,-0.022 -0.814,-0.066 l 0,-7.9090003"
         id="path4493"
         style="fill:#dbdbdb;fill-opacity:1" />
    </g>
    <g
       id="g3109">
      <rect
         width="1.7300551"
         height="1.7377186"
         rx="0"
         x="18.083666"
         y="6.8460593"
         id="rect3826-7-6"
         style="opacity:0.85526315;fill:#cfcfcf;fill-opacity:1;stroke:none" />
      <rect
         width="1.7300551"
         height="1.7377186"
         rx="0"
         x="18.114916"
         y="9.8746033"
         id="rect3830-7-8"
         style="opacity:0.85526315;fill:#cfcfcf;fill-opacity:1;stroke:none" />
      <rect
         width="1.7300551"
         height="1.7377186"
         rx="0"
         x="18.114916"
         y="12.695539"
         id="rect3832-2-8"
         style="opacity:0.85526315;fill:#cfcfcf;fill-opacity:1;stroke:none" />
      <rect
         width="1.7300551"
         height="1.7377186"
         rx="0"
         x="14.921685"
         y="6.8460593"
         id="rect3403"
         style="opacity:0.85526315;fill:#cfcfcf;fill-opacity:1;stroke:none" />
      <rect
         width="1.7300551"
         height="1.7377186"
         rx="0"
         x="14.921685"
         y="9.8460588"
         id="rect3405"
         style="opacity:0.85526315;fill:#cfcfcf;fill-opacity:1;stroke:none" />
      <rect
         width="1.7300551"
         height="1.7377186"
         rx="0"
         x="14.921685"
         y="12.664289"
         id="rect3407"
         style="opacity:0.85526315;fill:#cfcfcf;fill-opacity:1;stroke:none" />
      <rect
         width="1.7300551"
         height="1.7377186"
         rx="0"
         x="11.677416"
         y="6.8460593"
         id="rect3409"
         style="opacity:0.85526315;fill:#cfcfcf;fill-opacity:1;stroke:none" />
      <rect
         width="1.7300551"
         height="1.7377186"
         rx="0"
         x="11.677416"
         y="9.8433533"
         id="rect3411"
         style="opacity:0.85526315;fill:#cfcfcf;fill-opacity:1;stroke:none" />
      <rect
         width="1.7300551"
         height="1.7377186"
         rx="0"
         x="11.677416"
         y="12.664289"
         id="rect3413"
         style="opacity:0.85526315;fill:#cfcfcf;fill-opacity:1;stroke:none" />
    </g>
  </g>
</svg>
