<?xml version="1.0" encoding="UTF-8" standalone="no"?>
<!-- Created with Inkscape (http://www.inkscape.org/) -->

<svg
   xmlns:dc="http://purl.org/dc/elements/1.1/"
   xmlns:cc="http://creativecommons.org/ns#"
   xmlns:rdf="http://www.w3.org/1999/02/22-rdf-syntax-ns#"
   xmlns:svg="http://www.w3.org/2000/svg"
   xmlns="http://www.w3.org/2000/svg"
   xmlns:xlink="http://www.w3.org/1999/xlink"
   version="1.1"
   width="64"
   height="22"
   id="svg3273">
  <defs
     id="defs3275">
    <linearGradient
       id="linearGradient3973">
      <stop
         id="stop3975"
         style="stop-color:#6591b0;stop-opacity:1"
         offset="0" />
      <stop
         id="stop3977"
         style="stop-color:#365970;stop-opacity:1"
         offset="1" />
    </linearGradient>
    <linearGradient
       id="linearGradient4095">
      <stop
         id="stop4097"
         style="stop-color:#131313;stop-opacity:1"
         offset="0" />
      <stop
         id="stop4099"
         style="stop-color:#131313;stop-opacity:0"
         offset="1" />
    </linearGradient>
    <linearGradient
       id="linearGradient4054">
      <stop
         id="stop4056"
         style="stop-color:#1a1a1a;stop-opacity:1"
         offset="0" />
      <stop
         id="stop4058"
         style="stop-color:#666666;stop-opacity:1"
         offset="1" />
    </linearGradient>
    <linearGradient
       x1="-47.059258"
       y1="20.14957"
       x2="-46.978706"
       y2="1.0181593"
       id="linearGradient4358"
       xlink:href="#linearGradient4054"
       gradientUnits="userSpaceOnUse"
       gradientTransform="matrix(0.9757771,0,0,1.0033839,-0.651405,0.10045229)" />
    <linearGradient
       x1="-17.784681"
       y1="9.8260183"
       x2="-11.504409"
       y2="9.6024895"
       id="linearGradient4362"
       xlink:href="#linearGradient4095"
       gradientUnits="userSpaceOnUse"
       gradientTransform="matrix(0.88797735,0,0,0.89426106,-19.10437,2.3740109)" />
    <linearGradient
       x1="-16.358681"
       y1="16.745241"
       x2="-16.440229"
       y2="2.2495534"
       id="linearGradient4369"
       xlink:href="#linearGradient3973"
       gradientUnits="userSpaceOnUse"
       gradientTransform="matrix(1,0,0,1.0173364,0,-0.00115499)" />
    <linearGradient
       x1="-47.059258"
       y1="20.14957"
       x2="-46.978706"
       y2="1.0181593"
       id="linearGradient3084"
       xlink:href="#linearGradient4054"
       gradientUnits="userSpaceOnUse"
       gradientTransform="matrix(0.9757771,0,0,1.0033839,-0.651405,0.10045229)" />
    <linearGradient
       x1="-17.784681"
       y1="9.8260183"
       x2="-11.504409"
       y2="9.6024895"
       id="linearGradient3088"
       xlink:href="#linearGradient4095"
       gradientUnits="userSpaceOnUse"
       gradientTransform="matrix(0.88797735,0,0,0.89426106,-19.10437,2.3740109)" />
    <linearGradient
       x1="-16.358681"
       y1="16.745241"
       x2="-16.440229"
       y2="2.2495534"
       id="linearGradient3095"
       xlink:href="#linearGradient3973"
       gradientUnits="userSpaceOnUse"
       gradientTransform="matrix(1,0,0,1.0173364,0,-0.00115499)" />
  </defs>
  <metadata
     id="metadata3278">
    <rdf:RDF>
      <cc:Work
         rdf:about="">
        <dc:format>image/svg+xml</dc:format>
        <dc:type
           rdf:resource="http://purl.org/dc/dcmitype/StillImage" />
        <dc:title></dc:title>
      </cc:Work>
    </rdf:RDF>
  </metadata>
  <g
     id="g3097">
    <rect
       width="63.000004"
       height="19.329391"
       rx="0"
       ry="0"
       x="-63.5"
       y="1.5248497"
       transform="scale(-1,1)"
       id="rect17456"
       style="color:#000000;fill:url(#linearGradient3095);fill-opacity:1;stroke:#151515;stroke-width:1.00863087;stroke-linecap:round;stroke-linejoin:miter;stroke-miterlimit:4;stroke-opacity:1;stroke-dasharray:none;stroke-dashoffset:0;marker:none;visibility:visible;display:inline;overflow:visible;enable-background:accumulate" />
    <rect
       width="60.831535"
       height="16.935122"
       rx="2.6125011"
       ry="0"
       x="-62.580181"
       y="2.5719776"
       transform="scale(-1,1)"
       id="rect4103"
       style="opacity:0.43421056;color:#000000;fill:none;stroke:#000000;stroke-width:0.63363165;stroke-linecap:round;stroke-linejoin:miter;stroke-miterlimit:4;stroke-opacity:1;stroke-dasharray:none;stroke-dashoffset:0;marker:none;visibility:visible;display:inline;overflow:visible;enable-background:accumulate" />
    <rect
       width="59.675213"
       height="14.549673"
       rx="1.3368816"
       ry="0"
       x="-62.605919"
       y="3.7548935"
       transform="scale(-1,1)"
       id="rect4306"
       style="opacity:0.11403509;color:#000000;fill:none;stroke:#000000;stroke-width:0.58170366;stroke-linecap:round;stroke-linejoin:miter;stroke-miterlimit:4;stroke-opacity:1;stroke-dasharray:none;stroke-dashoffset:0;marker:none;visibility:visible;display:inline;overflow:visible;enable-background:accumulate" />
    <rect
       width="61.394192"
       height="18.112261"
       rx="1.011971"
       ry="0"
       x="-62.571636"
       y="2.0250123"
       transform="scale(-1,1)"
       id="rect3996"
       style="opacity:0.85526315;color:#000000;fill:none;stroke:#0c0c0c;stroke-width:0.6583066;stroke-linecap:round;stroke-linejoin:miter;stroke-miterlimit:4;stroke-opacity:1;stroke-dasharray:none;stroke-dashoffset:0;marker:none;visibility:visible;display:inline;overflow:visible;enable-background:accumulate" />
    <rect
       width="60.230118"
       height="15.684348"
       rx="1.9587173"
       ry="0"
       x="-62.593502"
       y="3.1973653"
       transform="scale(-1,1)"
       id="rect4105"
       style="opacity:0.27192987;color:#000000;fill:none;stroke:#000000;stroke-width:0.60676193;stroke-linecap:round;stroke-linejoin:miter;stroke-miterlimit:4;stroke-opacity:1;stroke-dasharray:none;stroke-dashoffset:0;marker:none;visibility:visible;display:inline;overflow:visible;enable-background:accumulate" />
    <rect
       width="27.527298"
       height="17.885221"
       rx="3.5519094"
       ry="0"
       x="-57.54575"
       y="2.1184795"
       transform="scale(-1,1)"
       id="rect4062"
       style="fill:url(#linearGradient3088);fill-opacity:1;stroke:none;display:inline" />
    <rect
       width="32.32217"
       height="22.0058"
       rx="1.0514213"
       ry="0.53952408"
       x="-64.130516"
       y="0.066622458"
       transform="scale(-1,1)"
       id="rect4093"
       style="fill:#696969;fill-opacity:1;stroke:none;display:inline" />
    <rect
       width="30.24909"
       height="20.067678"
       rx="0"
       ry="0"
       x="-62.975956"
       y="0.97714245"
       transform="scale(-1,1)"
       id="rect17458"
       style="fill:url(#linearGradient3084);fill-opacity:1;stroke:none;display:inline" />
    <g
       transform="matrix(1,0,0,1.0173364,0.7831979,-0.15474987)"
       id="text4327-4"
       style="font-size:11px;font-style:normal;font-variant:normal;font-weight:bold;font-stretch:normal;line-height:125%;letter-spacing:0px;word-spacing:0px;fill:#dbdbdb;fill-opacity:1;stroke:none;font-family:Aller;-inkscape-font-specification:Aller Bold">
      <path
         d="m 12.055112,14.753119 c -0.594004,-10e-7 -1.107336,-0.102667 -1.54,-0.308 -0.432669,-0.205333 -0.7883351,-0.487666 -1.0670001,-0.847 -0.2786678,-0.366666 -0.4876676,-0.795665 -0.627,-1.287 -0.1320007,-0.498664 -0.1980006,-1.04133 -0.198,-1.628 -6e-7,-0.586663 0.065999,-1.1293287 0.198,-1.6280005 0.1393324,-0.5059939 0.3483322,-0.9423268 0.627,-1.309 0.278665,-0.3666594 0.6343311,-0.6526591 1.0670001,-0.858 0.432664,-0.2053253 0.945996,-0.3079919 1.54,-0.308 0.593995,8.1e-6 1.107328,0.1026747 1.54,0.308 0.432661,0.2053409 0.788327,0.4913406 1.067,0.858 0.27866,0.3666732 0.483993,0.8030061 0.616,1.309 0.139326,0.4986718 0.208992,1.0413375 0.209,1.6280005 -8e-6,0.58667 -0.06967,1.129336 -0.209,1.628 -0.132007,0.491335 -0.33734,0.920334 -0.616,1.287 -0.278673,0.359334 -0.634339,0.641667 -1.067,0.847 -0.432672,0.205333 -0.946005,0.307999 -1.54,0.308 m 0,-1.342 c 1.136661,1e-6 1.704994,-0.909332 1.705,-2.728 -6e-6,-0.9093289 -0.139339,-1.5913283 -0.418,-2.0460005 -0.271338,-0.4546602 -0.696671,-0.6819933 -1.276,-0.682 -1.151336,6.7e-6 -1.727002,0.9093391 -1.727,2.7280005 -2e-6,1.818668 0.571997,2.728001 1.716,2.728"
         id="path5129"
         style="fill:#dbdbdb;fill-opacity:1" />
      <path
         d="m 16.824299,6.7121185 c 0.227333,-0.043992 0.443666,-0.065992 0.649,-0.066 0.219999,8e-6 0.447332,0.022008 0.682,0.066 l 3.058,5.0380005 0,-5.0380005 c 0.263995,-0.043992 0.516995,-0.065992 0.759,-0.066 0.227328,8e-6 0.447327,0.022008 0.66,0.066 l 0,7.9090005 c -0.234673,0.044 -0.447339,0.066 -0.638,0.066 -0.205339,-10e-7 -0.429005,-0.022 -0.671,-0.066 l -3.08,-5.0270005 0,5.0270005 c -0.234668,0.044 -0.473001,0.066 -0.715,0.066 -0.242001,-10e-7 -0.476667,-0.022 -0.704,-0.066 l 0,-7.9090005"
         id="path5131"
         style="fill:#dbdbdb;fill-opacity:1" />
    </g>
    <g
       transform="translate(32.000001,0.03411486)"
       id="g3109">
      <rect
         width="1.7300551"
         height="1.7377186"
         rx="0"
         x="18.083666"
         y="6.8460593"
         id="rect3826-7-6"
         style="opacity:0.85526315;fill:#cfcfcf;fill-opacity:1;stroke:none" />
      <rect
         width="1.7300551"
         height="1.7377186"
         rx="0"
         x="18.114916"
         y="9.8746033"
         id="rect3830-7-8"
         style="opacity:0.85526315;fill:#cfcfcf;fill-opacity:1;stroke:none" />
      <rect
         width="1.7300551"
         height="1.7377186"
         rx="0"
         x="18.114916"
         y="12.695539"
         id="rect3832-2-8"
         style="opacity:0.85526315;fill:#cfcfcf;fill-opacity:1;stroke:none" />
      <rect
         width="1.7300551"
         height="1.7377186"
         rx="0"
         x="14.921685"
         y="6.8460593"
         id="rect3403"
         style="opacity:0.85526315;fill:#cfcfcf;fill-opacity:1;stroke:none" />
      <rect
         width="1.7300551"
         height="1.7377186"
         rx="0"
         x="14.921685"
         y="9.8460588"
         id="rect3405"
         style="opacity:0.85526315;fill:#cfcfcf;fill-opacity:1;stroke:none" />
      <rect
         width="1.7300551"
         height="1.7377186"
         rx="0"
         x="14.921685"
         y="12.664289"
         id="rect3407"
         style="opacity:0.85526315;fill:#cfcfcf;fill-opacity:1;stroke:none" />
      <rect
         width="1.7300551"
         height="1.7377186"
         rx="0"
         x="11.677416"
         y="6.8460593"
         id="rect3409"
         style="opacity:0.85526315;fill:#cfcfcf;fill-opacity:1;stroke:none" />
      <rect
         width="1.7300551"
         height="1.7377186"
         rx="0"
         x="11.677416"
         y="9.8433533"
         id="rect3411"
         style="opacity:0.85526315;fill:#cfcfcf;fill-opacity:1;stroke:none" />
      <rect
         width="1.7300551"
         height="1.7377186"
         rx="0"
         x="11.677416"
         y="12.664289"
         id="rect3413"
         style="opacity:0.85526315;fill:#cfcfcf;fill-opacity:1;stroke:none" />
    </g>
  </g>
</svg>
